<?xml version="1.0" encoding="UTF-8"?>
<svg id="Layer_1" xmlns="http://www.w3.org/2000/svg" version="1.1" xmlns:xlink="http://www.w3.org/1999/xlink" viewBox="0 0 65 65">
  <!-- Generator: Adobe Illustrator 29.7.1, SVG Export Plug-In . SVG Version: 2.1.1 Build 8)  -->
  <defs>
    <style>
      .st0 {
        fill: url(#linear-gradient2);
      }

      .st1 {
        fill: url(#linear-gradient1);
      }

      .st2 {
        fill: #5b2773;
      }

      .st3 {
        fill: url(#linear-gradient);
      }

      .st4 {
        fill: #320a3e;
      }
    </style>
    <linearGradient id="linear-gradient" x1="22.8" y1="-15.5" x2="38.3" y2="-49.2" gradientTransform="translate(-3.1 13.4) rotate(-2.8) scale(1 -1)" gradientUnits="userSpaceOnUse">
      <stop offset=".2" stop-color="#4b246b"/>
      <stop offset=".4" stop-color="#552972"/>
      <stop offset=".7" stop-color="#713686"/>
      <stop offset=".9" stop-color="#894198"/>
    </linearGradient>
    <linearGradient id="linear-gradient1" x1="29.6" y1="10.6" x2="36.1" y2="-15.9" xlink:href="#linear-gradient"/>
    <linearGradient id="linear-gradient2" x1="2.9" y1="-20.9" x2="66.4" y2="-20.9" xlink:href="#linear-gradient"/>
  </defs>
  <path class="st4" d="M48,37.5l-33.5-5.5c-.7-.1-1.2-.8-1.1-1.5,0,0,0,0,0,0l4-20.6c.1-.7.8-1.2,1.5-1l32.4,5.3c.7.1,1.2.8,1.1,1.5l-2.8,20.8c0,.7-.8,1.2-1.5,1.1,0,0,0,0,0,0Z"/>
  <path class="st2" d="M47.7,36.6l-33.5-5.5c-.7-.1-1.2-.8-1.1-1.5,0,0,0,0,0,0l.6-3,3.4-17.6c.1-.7.8-1.2,1.5-1l32.4,5.3c.7.1,1.2.8,1.1,1.5l-2.8,20.8c0,.7-.7,1.2-1.5,1.1,0,0,0,0,0,0Z"/>
  <path class="st4" d="M30.1,36.4l-4.2-.7c-.3,0-.6.1-.6.4l-.5,2.2c0,.3.1.6.4.6,0,0,0,0,0,0l4.3.7c.3,0,.6-.1.6-.4,0,0,0,0,0,0l.4-2.2c0-.3-.2-.6-.4-.6Z"/>
  <path class="st4" d="M23.8,35.4l-4.2-.7c-.3,0-.6.1-.6.4l-.5,2.2c0,.3.1.6.4.7,0,0,0,0,0,0l4.3.7c.3,0,.6-.1.6-.4l.5-2.2c0-.3-.1-.6-.4-.7,0,0,0,0,0,0Z"/>
  <path class="st4" d="M31.6,40l4.3.7c.3,0,.6-.2.6-.5,0,0,0,0,0,0l.3-2.3c0-.3-.2-.6-.5-.6l-4.2-.7c-.3,0-.6.1-.6.4,0,0,0,0,0,0l-.4,2.2c0,.3.2.6.5.6Z"/>
  <path class="st4" d="M24.2,44.3l4.5.7c.3,0,.6-.1.6-.4,0,0,0,0,0,0l.5-3.3c0-.3-.1-.6-.4-.6,0,0,0,0,0,0l-4.3-.7c-.3,0-.6.1-.6.4l-.7,3.2c0,.3.1.6.4.7,0,0,0,0,0,0Z"/>
  <path class="st4" d="M38,41.1l4.3.7c.3,0,.6-.1.6-.4,0,0,0,0,0,0l.2-2.3c0-.3-.2-.5-.5-.6l-4.2-.7c-.3,0-.6.1-.6.4,0,0,0,0,0,0l-.3,2.3c0,.3.2.6.5.6Z"/>
  <path class="st4" d="M37.3,46.5l4.5.7c.3,0,.6-.1.6-.4,0,0,0,0,0,0l.3-3.3c0-.3-.2-.5-.5-.6l-4.4-.7c-.3,0-.6.2-.6.5,0,0,0,0,0,0l-.4,3.3c0,.3.2.6.5.6Z"/>
  <path class="st4" d="M10.9,42.1l4.6.8c.3,0,.6-.1.6-.4l.8-3.2c0-.3-.1-.6-.4-.7,0,0,0,0,0,0l-4.4-.7c-.3,0-.5.1-.6.4l-1,3.2c0,.3,0,.6.3.7,0,0,0,0,0,0Z"/>
  <path class="st4" d="M30.8,45.4l4.5.7c.3,0,.6-.2.6-.5,0,0,0,0,0,0l.4-3.3c0-.3-.2-.6-.5-.6l-4.3-.7c-.3,0-.6.1-.6.4,0,0,0,0,0,0l-.5,3.3c0,.3.2.6.5.6h0Z"/>
  <path class="st4" d="M17.6,43.3l4.5.7c.3,0,.6-.1.6-.4l.7-3.2c0-.3-.1-.6-.4-.6,0,0,0,0,0,0l-4.4-.7c-.3,0-.6.1-.6.4l-.8,3.2c0,.3.1.6.4.7,0,0,0,0,0,0Z"/>
  <path class="st4" d="M35.1,47.2l-4.5-.7c-.3,0-.6.1-.6.4,0,0,0,0,0,0l-.7,4.4c0,.3.1.6.4.6,0,0,0,0,0,0l4.7.8c.3,0,.6-.1.6-.4,0,0,0,0,0,0l.6-4.4c0-.3-.2-.6-.5-.6Z"/>
  <path class="st4" d="M15.2,43.9l-4.8-.8c-.3,0-.5.1-.6.4l-1.4,4.3c0,.3,0,.6.3.7,0,0,0,0,0,0l5.2.8c.3,0,.6-.1.6-.4l1-4.4c0-.3-.1-.6-.4-.7,0,0,0,0,0,0Z"/>
  <path class="st4" d="M44.4,42.1l4.2.7c.3,0,.6-.2.6-.4,0,0,0,0,0,0v-2.3c0-.3-.2-.5-.5-.5l-4-.7c-.3,0-.6.2-.6.4,0,0,0,0,0,0l-.2,2.3c0,.3.2.6.5.6Z"/>
  <path class="st4" d="M17.4,37.2l.5-2.2c0-.3-.1-.6-.4-.7,0,0,0,0,0,0l-4-.7c-.3,0-.5.1-.6.4l-.7,2.2c0,.3,0,.6.3.7,0,0,0,0,0,0l4.2.7c.3,0,.5-.1.6-.4Z"/>
  <path class="st4" d="M21.4,50l.9-4.4c0-.3-.1-.6-.4-.6,0,0,0,0,0,0l-4.5-.8c-.3,0-.6.1-.6.4l-1,4.4c0,.3.1.6.4.7,0,0,0,0,0,0l4.7.8c.3,0,.5-.2.6-.4Z"/>
  <path class="st4" d="M43.3,49.1l-.4,4.5c0,.3.2.5.5.6l5.2.8c.3,0,.6-.1.6-.4,0,0,0,0,0,0v-4.5c0-.3-.2-.5-.4-.5l-4.8-.8c-.3,0-.6.1-.6.4,0,0,0,0,0,0Z"/>
  <path class="st4" d="M28.5,46.1l-4.5-.7c-.3,0-.6.1-.6.4l-.9,4.4c0,.3.1.6.4.6,0,0,0,0,0,0l4.7.8c.3,0,.6-.1.6-.4,0,0,0,0,0,0l.7-4.4c0-.3-.2-.6-.4-.6Z"/>
  <path class="st4" d="M48.7,43.9l-4.4-.7c-.3,0-.6.1-.6.4,0,0,0,0,0,0l-.3,3.3c0,.3.2.5.5.6l4.6.8c.3,0,.6-.1.6-.4,0,0,0,0,0,0v-3.3c0-.3-.2-.5-.4-.5Z"/>
  <path class="st4" d="M41.8,48.3l-4.5-.7c-.3,0-.6.1-.6.4,0,0,0,0,0,0l-.6,4.4c0,.3.2.6.5.6l4.7.8c.3,0,.6-.2.6-.4,0,0,0,0,0,0l.4-4.4c0-.3-.2-.6-.5-.6Z"/>
  <path class="st3" d="M30.3,36.3l-.4,2.2c0,.3-.3.5-.6.5,0,0,0,0,0,0l-4.3-.7c-.3,0-.5-.3-.4-.6,0,0,0,0,0,0l.5-2.2c0-.3.3-.5.6-.4l4.2.7c.3,0,.5.3.4.6ZM23.5,34.7l-4.2-.7c-.3,0-.6.1-.6.4l-.5,2.2c0,.3.1.6.4.7,0,0,0,0,0,0l4.3.7c.3,0,.6-.1.6-.4l.5-2.2c0-.3-.1-.6-.4-.7,0,0,0,0,0,0ZM31.4,39.4l4.3.7c.3,0,.6-.1.6-.4,0,0,0,0,0,0l.3-2.3c0-.3-.2-.6-.5-.6l-4.2-.7c-.3,0-.6.1-.6.4,0,0,0,0,0,0l-.4,2.2c0,.3.2.6.4.6,0,0,0,0,0,0h0ZM23.9,43.7l4.5.7c.3,0,.6-.1.6-.4,0,0,0,0,0,0l.5-3.3c0-.3-.1-.6-.4-.6,0,0,0,0,0,0l-4.3-.7c-.3,0-.6.1-.6.4l-.7,3.2c0,.3.1.6.4.6,0,0,0,0,0,0h0ZM37.7,40.4l4.3.7c.3,0,.6-.1.6-.4,0,0,0,0,0,0l.2-2.3c0-.3-.2-.5-.5-.6l-4.2-.7c-.3,0-.6.1-.6.4,0,0,0,0,0,0l-.3,2.2c0,.3.2.6.5.6ZM37.1,45.8l4.5.7c.3,0,.6-.1.6-.4,0,0,0,0,0,0l.3-3.3c0-.3-.2-.5-.5-.6l-4.3-.7c-.3,0-.6.2-.6.5,0,0,0,0,0,0l-.4,3.3c0,.3.2.6.4.6,0,0,0,0,0,0h0ZM10.6,41.5l4.6.8c.3,0,.6-.1.6-.4l.8-3.2c0-.3-.1-.6-.4-.7,0,0,0,0,0,0l-4.4-.7c-.3,0-.5.1-.6.4l-1,3.2c0,.3,0,.6.3.7,0,0,0,0,0,0ZM30.5,44.7l4.5.7c.3,0,.6-.1.6-.4,0,0,0,0,0,0l.4-3.3c0-.3-.2-.6-.5-.6l-4.3-.7c-.3,0-.6.1-.6.4,0,0,0,0,0,0l-.5,3.3c0,.3.1.6.4.6,0,0,0,0,0,0ZM17.3,42.6l4.5.7c.3,0,.6-.1.6-.4l.7-3.2c0-.3-.1-.6-.4-.6,0,0,0,0,0,0l-4.3-.7c-.3,0-.6.1-.6.4l-.8,3.2c0,.3.1.6.4.7,0,0,0,0,0,0ZM34.9,46.5l-4.5-.7c-.3,0-.6.1-.6.4,0,0,0,0,0,0l-.7,4.4c0,.3.1.6.4.6,0,0,0,0,0,0l4.7.8c.3,0,.6-.1.6-.4,0,0,0,0,0,0l.6-4.4c0-.3-.2-.6-.5-.6h0ZM14.9,43.2l-4.8-.8c-.3,0-.5.1-.6.4l-1.4,4.3c0,.3,0,.6.3.7,0,0,0,0,0,0l5.2.9c.3,0,.6-.1.6-.4l1-4.4c0-.3,0-.6-.4-.7,0,0,0,0,0,0ZM44.1,41.5l4.2.7c.3,0,.6-.1.6-.4,0,0,0,0,0,0v-2.3c0-.3-.2-.5-.4-.5l-4-.7c-.3,0-.6.1-.6.4,0,0,0,0,0,0l-.2,2.3c0,.3.2.5.5.6ZM17.1,36.5l.5-2.2c0-.3-.1-.6-.4-.7,0,0,0,0,0,0l-4-.7c-.3,0-.5.1-.6.4l-.7,2.2c0,.3,0,.6.3.7,0,0,0,0,0,0l4.2.7c.3,0,.6-.1.6-.4ZM21.1,49.4l.9-4.4c0-.3-.1-.6-.4-.6,0,0,0,0,0,0l-4.5-.8c-.3,0-.6.1-.6.4l-1,4.4c0,.3.1.6.4.7,0,0,0,0,0,0l4.7.8c.3,0,.6-.2.6-.4ZM43,48.4l-.4,4.5c0,.3.2.5.5.6l5.2.8c.3,0,.6-.1.6-.4,0,0,0,0,0,0v-4.5c0-.3-.2-.5-.4-.5l-4.8-.8c-.3,0-.6.1-.6.4,0,0,0,0,0,0ZM28.2,45.4l-4.5-.7c-.3,0-.6.1-.6.4l-.9,4.4c0,.3.1.6.4.6,0,0,0,0,0,0l4.7.8c.3,0,.6-.1.6-.4,0,0,0,0,0,0l.7-4.4c0-.3-.2-.6-.5-.6,0,0,0,0,0,0h0ZM48.5,43.2l-4.4-.7c-.3,0-.6.1-.6.4,0,0,0,0,0,0l-.3,3.3c0,.3.2.5.5.6l4.6.8c.3,0,.6-.2.6-.4,0,0,0,0,0,0v-3.3c0-.3-.2-.5-.4-.5h0ZM41.5,47.6l-4.5-.7c-.3,0-.6.1-.6.4,0,0,0,0,0,0l-.6,4.4c0,.3.2.6.5.6l4.7.8c.3,0,.6-.1.6-.4,0,0,0,0,0,0l.4-4.5c0-.3-.2-.5-.5-.6Z"/>
  <path class="st1" d="M49.2,13c-4.6,10-19.2,15.8-35.5,13.6l3.4-17.6c.1-.7.8-1.2,1.5-1l30.6,5Z"/>
  <path class="st0" d="M62.8,15.6c-3.3-7.9-14.9-9.6-27.9-4.9h.3c11.7-3.4,21.9-1.3,25,6,3.1,7.4-1.8,18-11.5,26.7-1.6,1.4-3.3,2.8-5,4-.5.4-1,.7-1.5,1.1-1.2.8-2.4,1.5-3.6,2.2-.7.4-1.4.8-2,1.1,1.5-.7,3-1.5,4.5-2.3.4-.2.8-.4,1.2-.7.3-.2.6-.3.8-.5h0l.4-.3c.3-.2.5-.3.8-.5,1.7-1.1,3.3-2.3,4.8-3.5,11.1-8.9,17-20.5,13.7-28.4ZM35.8,52c-.3.1-.7.3-1,.4h-.2c-13.7,5.7-26.4,4.2-29.9-4.1-2.9-6.8,1.2-16.4,9.5-24.6l.3-1.7C4.3,30.8-1,41.8,2.2,49.5c3.8,9.1,18.5,10.1,33.6,2.6l.7-.4c-.2.1-.5.2-.7.3Z"/>
</svg>