<?xml version="1.0" encoding="UTF-8"?>
<svg id="Layer_1" xmlns="http://www.w3.org/2000/svg" version="1.1" xmlns:xlink="http://www.w3.org/1999/xlink" viewBox="0 0 91 91">
  <!-- Generator: Adobe Illustrator 29.7.1, SVG Export Plug-In . SVG Version: 2.1.1 Build 8)  -->
  <defs>
    <style>
      .st0 {
        fill: url(#linear-gradient2);
      }

      .st1 {
        fill: url(#linear-gradient1);
      }

      .st2 {
        fill: #5b2773;
      }

      .st3 {
        fill: url(#linear-gradient);
      }

      .st4 {
        fill: #320a3e;
      }
    </style>
    <linearGradient id="linear-gradient" x1="31" y1="-1.6" x2="53" y2="-49.4" gradientTransform="translate(-2.5 40) rotate(-2.8) scale(1 -1)" gradientUnits="userSpaceOnUse">
      <stop offset=".2" stop-color="#4b246b"/>
      <stop offset=".4" stop-color="#552972"/>
      <stop offset=".7" stop-color="#713686"/>
      <stop offset=".9" stop-color="#894198"/>
    </linearGradient>
    <linearGradient id="linear-gradient1" x1="40.6" y1="35.3" x2="49.8" y2="-2.2" xlink:href="#linear-gradient"/>
    <linearGradient id="linear-gradient2" x1="2.7" y1="-9.2" x2="92.8" y2="-9.2" xlink:href="#linear-gradient"/>
  </defs>
  <path class="st4" d="M67.6,53.8l-47.5-7.8c-1-.2-1.7-1.1-1.5-2.1,0,0,0,0,0,0l5.6-29.2c.2-1,1.1-1.6,2.1-1.5l46,7.5c1,.2,1.7,1.1,1.5,2.1l-4,29.5c-.1,1-1.1,1.7-2.1,1.6,0,0,0,0,0,0Z"/>
  <path class="st2" d="M67.2,52.7l-47.5-7.8c-1-.2-1.7-1.1-1.5-2.1,0,0,0,0,0,0l.8-4.3,4.8-24.9c.2-1,1.1-1.6,2.1-1.5l45.9,7.5c1,.2,1.7,1.1,1.5,2.1l-4,29.5c-.1,1-1.1,1.7-2.1,1.6,0,0,0,0,0,0Z"/>
  <path class="st4" d="M42.3,52.3l-5.9-1c-.4,0-.8.2-.9.6l-.6,3.1c0,.4.2.8.6.9,0,0,0,0,0,0l6,1c.4,0,.8-.2.9-.6,0,0,0,0,0,0l.5-3.2c0-.4-.2-.8-.6-.9Z"/>
  <path class="st4" d="M33.3,50.9l-5.9-1c-.4,0-.8.2-.9.6l-.8,3.1c0,.4.2.8.6.9,0,0,0,0,0,0l6,1c.4,0,.8-.2.9-.6l.6-3.1c0-.4-.2-.8-.6-.9,0,0,0,0,0,0Z"/>
  <path class="st4" d="M44.5,57.5l6,1c.4,0,.8-.2.9-.6,0,0,0,0,0,0l.4-3.2c0-.4-.2-.8-.6-.9l-5.9-1c-.4,0-.8.2-.9.6,0,0,0,0,0,0l-.5,3.2c0,.4.2.8.6.9Z"/>
  <path class="st4" d="M33.9,63.6l6.3,1c.4,0,.8-.2.9-.6,0,0,0,0,0,0l.8-4.6c0-.4-.2-.8-.6-.9,0,0,0,0,0,0l-6.2-1c-.4,0-.8.2-.9.6l-.9,4.6c0,.4.2.8.6.9,0,0,0,0,0,0Z"/>
  <path class="st4" d="M53.5,59l6,1c.4,0,.8-.2.9-.6,0,0,0,0,0,0l.3-3.2c0-.4-.2-.8-.6-.8l-5.9-1c-.4,0-.8.2-.9.6,0,0,0,0,0,0l-.4,3.2c0,.4.2.8.6.9Z"/>
  <path class="st4" d="M52.5,66.6l6.3,1c.4,0,.8-.2.9-.6,0,0,0,0,0,0l.4-4.7c0-.4-.2-.8-.6-.8l-6.2-1c-.4,0-.8.2-.9.6,0,0,0,0,0,0l-.6,4.6c0,.4.2.8.7.9Z"/>
  <path class="st4" d="M15,60.5l6.6,1.1c.4,0,.8-.2.9-.6l1.1-4.6c.1-.4-.1-.8-.6-.9,0,0,0,0,0,0l-6.2-1c-.4,0-.7.2-.9.5l-1.5,4.5c-.1.4,0,.8.5,1,0,0,0,0,.1,0Z"/>
  <path class="st4" d="M43.2,65.1l6.3,1c.4,0,.8-.2.9-.6,0,0,0,0,0,0l.6-4.6c0-.4-.2-.8-.6-.9l-6.2-1c-.4,0-.8.2-.9.6,0,0,0,0,0,0l-.8,4.6c0,.4.2.8.6.9h0Z"/>
  <path class="st4" d="M24.6,62.1l6.3,1c.4,0,.8-.2.9-.6l.9-4.6c0-.4-.2-.8-.6-.9,0,0,0,0,0,0l-6.2-1c-.4,0-.8.2-.9.6l-1.1,4.6c0,.4.2.8.6.9,0,0,0,0,0,0Z"/>
  <path class="st4" d="M49.4,67.6l-6.4-1.1c-.4,0-.8.2-.9.6,0,0,0,0,0,0l-1,6.2c0,.4.2.8.6.9,0,0,0,0,0,0l6.7,1.1c.4,0,.8-.2.9-.6,0,0,0,0,0,0l.8-6.3c0-.4-.2-.8-.6-.9Z"/>
  <path class="st4" d="M21.1,63l-6.8-1.1c-.4,0-.7.2-.9.5l-2,6.1c-.1.4,0,.8.5,1,0,0,0,0,.1,0l7.3,1.2c.4,0,.8-.2.9-.6l1.5-6.2c.1-.4-.2-.8-.6-.9,0,0,0,0,0,0Z"/>
  <path class="st4" d="M62.5,60.5l5.9,1c.4,0,.8-.2.9-.6,0,0,0,0,0-.1v-3.3c0-.4-.3-.7-.6-.8l-5.7-.9c-.4,0-.8.2-.9.6,0,0,0,0,0,0l-.3,3.2c0,.4.3.8.7.8Z"/>
  <path class="st4" d="M24.3,53.5l.8-3.1c.1-.4-.2-.8-.6-.9,0,0,0,0,0,0l-5.7-.9c-.4,0-.7.2-.9.5l-1,3.1c-.1.4,0,.8.5,1,0,0,0,0,.1,0l5.9,1c.4,0,.8-.2.9-.6Z"/>
  <path class="st4" d="M30,71.7l1.2-6.2c0-.4-.2-.8-.6-.9,0,0,0,0,0,0l-6.4-1.1c-.4,0-.8.2-.9.6l-1.5,6.2c-.1.4.1.8.6.9,0,0,0,0,0,0l6.7,1.1c.4,0,.8-.2.9-.6Z"/>
  <path class="st4" d="M60.9,70.4l-.6,6.3c0,.4.2.8.6.8l7.3,1.2c.4,0,.8-.2.9-.6,0,0,0,0,0-.1v-6.4c0-.4-.2-.7-.6-.8l-6.8-1.1c-.4,0-.8.2-.9.6,0,0,0,0,0,0Z"/>
  <path class="st4" d="M40,66.1l-6.4-1.1c-.4,0-.8.2-.9.6l-1.3,6.2c0,.4.2.8.6.9,0,0,0,0,0,0l6.7,1.1c.4,0,.8-.2.9-.6,0,0,0,0,0,0l1-6.2c0-.4-.2-.8-.6-.9Z"/>
  <path class="st4" d="M68.7,63l-6.2-1c-.4,0-.8.2-.9.6,0,0,0,0,0,0l-.4,4.7c0,.4.2.8.6.8l6.6,1.1c.4,0,.8-.2.9-.6,0,0,0,0,0-.1v-4.7c0-.4-.2-.7-.6-.8Z"/>
  <path class="st4" d="M58.8,69.2l-6.4-1.1c-.4,0-.8.2-.9.6,0,0,0,0,0,0l-.8,6.3c0,.4.2.8.6.9l6.7,1.1c.4,0,.8-.2.9-.6,0,0,0,0,0,0l.6-6.3c0-.4-.2-.8-.6-.9Z"/>
  <path class="st3" d="M42.5,52.2l-.5,3.2c0,.4-.5.7-.9.6,0,0,0,0,0,0l-6-1c-.4,0-.7-.5-.6-.9,0,0,0,0,0,0l.6-3.1c0-.4.5-.7.9-.6l5.9,1c.4,0,.7.4.6.9ZM32.9,49.9l-5.9-1c-.4,0-.8.2-.9.6l-.8,3.1c-.1.4.2.8.6.9,0,0,0,0,0,0l6,1c.4,0,.8-.2.9-.6l.6-3.1c.1-.4-.2-.8-.6-.9,0,0,0,0,0,0ZM44.1,56.5l6,1c.4,0,.8-.2.9-.6,0,0,0,0,0,0l.4-3.2c0-.4-.2-.8-.6-.9l-5.9-1c-.4,0-.8.2-.9.6,0,0,0,0,0,0l-.5,3.2c0,.4.2.8.6.9,0,0,0,0,0,0h0ZM33.5,62.6l6.3,1c.4,0,.8-.2.9-.6,0,0,0,0,0,0l.8-4.6c0-.4-.2-.8-.6-.9,0,0,0,0,0,0l-6.2-1c-.4,0-.8.2-.9.6l-.9,4.6c0,.4.2.8.6.9,0,0,0,0,0,0h0ZM53.1,58l6,1c.4,0,.8-.2.9-.6,0,0,0,0,0,0l.3-3.2c0-.4-.2-.8-.6-.8l-5.9-1c-.4,0-.8.2-.9.6,0,0,0,0,0,0l-.4,3.2c0,.4.2.8.6.9ZM52.1,65.7l6.3,1c.4,0,.8-.2.9-.6,0,0,0,0,0,0l.4-4.7c0-.4-.2-.8-.6-.8l-6.2-1c-.4,0-.8.2-.9.6,0,0,0,0,0,0l-.6,4.7c0,.4.2.8.6.9,0,0,0,0,0,0h0ZM14.6,59.5l6.6,1.1c.4,0,.8-.2.9-.6l1.1-4.6c.1-.4-.1-.8-.6-.9,0,0,0,0,0,0l-6.2-1c-.4,0-.8.1-.9.5l-1.5,4.5c-.1.4,0,.8.5,1,0,0,0,0,.1,0ZM42.8,64.2l6.3,1c.4,0,.8-.2.9-.6,0,0,0,0,0,0l.6-4.7c0-.4-.2-.8-.6-.9l-6.2-1c-.4,0-.8.2-.9.6,0,0,0,0,0,0l-.8,4.6c0,.4.2.8.6.9,0,0,0,0,0,0ZM24.2,61.1l6.3,1c.4,0,.8-.2.9-.6l.9-4.6c0-.4-.2-.8-.6-.9,0,0,0,0,0,0l-6.2-1c-.4,0-.8.2-.9.6l-1.1,4.6c0,.4.2.8.6.9,0,0,0,0,0,0ZM49,66.7l-6.4-1.1c-.4,0-.8.2-.9.6,0,0,0,0,0,0l-1,6.2c0,.4.2.8.6.9,0,0,0,0,0,0l6.7,1.1c.4,0,.8-.2.9-.6,0,0,0,0,0,0l.8-6.3c0-.4-.2-.8-.6-.8h0ZM20.8,62l-6.8-1.1c-.4,0-.7.2-.9.5l-2,6.1c-.1.4,0,.8.5,1,0,0,0,0,.1,0l7.3,1.2c.4,0,.8-.2.9-.6l1.5-6.2c.1-.4-.1-.8-.5-.9,0,0,0,0-.1,0ZM62.2,59.5l5.9,1c.4,0,.8-.2.9-.6,0,0,0,0,0-.1v-3.3c0-.4-.2-.7-.6-.8l-5.7-.9c-.4,0-.8.2-.9.6,0,0,0,0,0,0l-.3,3.2c0,.4.2.8.6.8ZM23.9,52.5l.8-3.1c0-.4-.2-.8-.6-.9,0,0,0,0,0,0l-5.7-.9c-.4,0-.7.2-.9.5l-1,3.1c-.1.4,0,.8.5,1,0,0,0,0,.1,0l5.9,1c.4,0,.8-.2.9-.6ZM29.5,70.7l1.2-6.2c0-.4-.2-.8-.6-.9,0,0,0,0,0,0l-6.4-1.1c-.4,0-.8.2-.9.6l-1.5,6.2c-.1.4.1.8.6.9,0,0,0,0,0,0l6.7,1.1c.4,0,.8-.2.9-.6ZM60.6,69.4l-.6,6.3c0,.4.2.8.6.8l7.3,1.2c.4,0,.8-.2.9-.6,0,0,0,0,0-.1v-6.4c0-.4-.2-.7-.6-.8l-6.8-1.1c-.4,0-.8.2-.9.6,0,0,0,0,0,0ZM39.6,65.1l-6.4-1.1c-.4,0-.8.2-.9.6l-1.3,6.2c0,.4.2.8.6.9,0,0,0,0,0,0l6.7,1.1c.4,0,.8-.2.9-.6,0,0,0,0,0,0l1-6.2c0-.4-.2-.8-.6-.9,0,0,0,0,0,0h0ZM68.3,62l-6.2-1c-.4,0-.8.2-.9.6,0,0,0,0,0,0l-.4,4.7c0,.4.2.8.6.8l6.6,1.1c.4,0,.8-.2.9-.6,0,0,0,0,0-.1v-4.7c0-.4-.2-.7-.6-.8h0ZM58.4,68.2l-6.4-1.1c-.4,0-.8.2-.9.6,0,0,0,0,0,0l-.8,6.3c0,.4.2.8.6.9l6.7,1.1c.4,0,.8-.2.9-.6,0,0,0,0,0,0l.6-6.3c0-.4-.2-.8-.6-.8Z"/>
  <path class="st1" d="M69.3,19.2c-6.6,14.2-27.3,22.4-50.3,19.3l4.8-24.9c.2-1,1.1-1.6,2.1-1.5l43.4,7.1Z"/>
  <path class="st0" d="M88.6,22.8c-4.7-11.2-21.2-13.6-39.5-7h.4c16.6-4.8,31-1.9,35.4,8.6,4.4,10.4-2.6,25.6-16.3,37.8-2.3,2-4.6,3.9-7.1,5.7-.7.5-1.4,1-2.2,1.5-1.6,1.1-3.3,2.1-5.1,3.1-1,.5-1.9,1.1-2.9,1.6,2.1-1,4.3-2.1,6.4-3.3.6-.3,1.1-.6,1.6-.9.4-.2.8-.4,1.2-.7h0l.6-.4c.4-.2.7-.4,1.1-.7,2.4-1.5,4.7-3.2,6.9-5,15.7-12.6,24.2-29.1,19.5-40.2ZM50.4,74.5c-.5.2-1,.4-1.4.6h-.3c-19.5,8.1-37.4,6-42.3-5.8-4-9.6,1.7-23.2,13.5-34.9l.4-2.4C5.8,44.4-1.8,60.1,2.8,70.9c5.4,12.9,26.2,14.3,47.6,3.7l1-.5c-.3.2-.7.3-1,.5Z"/>
</svg>