<?xml version="1.0" encoding="UTF-8"?>
<svg id="Layer_1" xmlns="http://www.w3.org/2000/svg" version="1.1" xmlns:xlink="http://www.w3.org/1999/xlink" viewBox="0 0 280 280">
  <!-- Generator: Adobe Illustrator 29.7.1, SVG Export Plug-In . SVG Version: 2.1.1 Build 8)  -->
  <defs>
    <style>
      .st0 {
        fill: url(#linear-gradient2);
      }

      .st1 {
        fill: url(#linear-gradient1);
      }

      .st2 {
        fill: #5b2773;
      }

      .st3 {
        fill: url(#linear-gradient);
      }

      .st4 {
        fill: #320a3e;
      }
    </style>
    <linearGradient id="linear-gradient" x1="89.5" y1="111.4" x2="158.6" y2="-39.2" gradientTransform="translate(2.2 234.5) rotate(-2.8) scale(1 -1)" gradientUnits="userSpaceOnUse">
      <stop offset=".2" stop-color="#4b246b"/>
      <stop offset=".4" stop-color="#552972"/>
      <stop offset=".7" stop-color="#713686"/>
      <stop offset=".9" stop-color="#894198"/>
    </linearGradient>
    <linearGradient id="linear-gradient1" x1="119.7" y1="227.7" x2="148.7" y2="109.6" gradientTransform="translate(2.2 234.5) rotate(-2.8) scale(1 -1)" gradientUnits="userSpaceOnUse">
      <stop offset=".2" stop-color="#4b246b"/>
      <stop offset=".4" stop-color="#552972"/>
      <stop offset=".7" stop-color="#713686"/>
      <stop offset=".9" stop-color="#894198"/>
    </linearGradient>
    <linearGradient id="linear-gradient2" x1=".4" y1="87.4" x2="284" y2="87.4" gradientTransform="translate(2.2 234.5) rotate(-2.8) scale(1 -1)" gradientUnits="userSpaceOnUse">
      <stop offset=".2" stop-color="#4b246b"/>
      <stop offset=".4" stop-color="#552972"/>
      <stop offset=".7" stop-color="#713686"/>
      <stop offset=".9" stop-color="#894198"/>
    </linearGradient>
  </defs>
  <path class="st4" d="M209,162.1l-149.7-24.6c-3.2-.5-5.3-3.5-4.8-6.7,0,0,0-.1,0-.2l17.6-92c.6-3.1,3.5-5.2,6.7-4.7l144.7,23.7c3.1.5,5.3,3.4,4.8,6.6l-12.6,92.8c-.4,3.2-3.4,5.4-6.6,5,0,0-.1,0-.2,0Z"/>
  <path class="st2" d="M207.9,158.5l-149.7-24.6c-3.2-.5-5.3-3.5-4.8-6.7,0,0,0-.1,0-.2l2.6-13.5,15.1-78.4c.6-3.1,3.6-5.2,6.7-4.7l144.6,23.7c3.1.5,5.2,3.4,4.8,6.5l-12.6,92.7c-.4,3.2-3.3,5.4-6.5,5,0,0-.1,0-.2,0Z"/>
  <path class="st4" d="M129.2,157.3l-18.7-3.1c-1.3-.2-2.6.6-2.8,1.9l-2,9.9c-.2,1.3.7,2.6,2,2.8,0,0,0,0,0,0l19,3.1c1.3.2,2.6-.7,2.8-2,0,0,0,0,0,0l1.6-10c.2-1.3-.7-2.5-2-2.7Z"/>
  <path class="st4" d="M101.1,152.8l-18.7-3.1c-1.3-.2-2.5.6-2.8,1.8l-2.4,9.9c-.3,1.3.5,2.6,1.8,2.9,0,0,.1,0,.2,0l19,3.1c1.3.2,2.6-.6,2.8-1.9l2-9.9c.3-1.3-.5-2.6-1.8-2.9,0,0,0,0-.1,0Z"/>
  <path class="st4" d="M136.2,173.6l19,3.2c1.3.2,2.6-.7,2.8-2,0,0,0,0,0,0l1.3-10.1c.2-1.3-.7-2.5-2-2.7l-18.7-3.1c-1.3-.2-2.6.6-2.8,2,0,0,0,0,0,0l-1.6,10c-.2,1.3.7,2.6,2,2.8Z"/>
  <path class="st4" d="M102.9,192.8l19.9,3.3c1.3.2,2.6-.7,2.8-2,0,0,0,0,0,0l2.4-14.6c.2-1.3-.6-2.6-2-2.8,0,0,0,0,0,0l-19.4-3.2c-1.3-.2-2.6.6-2.8,1.9l-2.9,14.5c-.3,1.3.6,2.6,1.9,2.9,0,0,0,0,.1,0Z"/>
  <path class="st4" d="M164.6,178.3l19,3.1c1.3.2,2.6-.6,2.8-2,0,0,0-.1,0-.2l.9-10.1c.1-1.3-.8-2.4-2-2.6l-18.7-3.1c-1.3-.2-2.6.6-2.8,2,0,0,0,0,0,.1l-1.3,10c-.2,1.3.7,2.5,2,2.7Z"/>
  <path class="st4" d="M161.6,202.4l19.9,3.3c1.3.2,2.6-.6,2.8-2,0,0,0-.1,0-.2l1.3-14.7c.1-1.3-.8-2.4-2-2.6l-19.4-3.2c-1.3-.2-2.6.7-2.8,2,0,0,0,0,0,0l-1.9,14.6c-.2,1.3.8,2.5,2.1,2.7Z"/>
  <path class="st4" d="M43.5,183l20.7,3.4c1.3.3,2.5-.6,2.8-1.8l3.5-14.4c.3-1.3-.5-2.6-1.8-2.9,0,0-.1,0-.2,0l-19.5-3.2c-1.2-.2-2.3.5-2.7,1.6l-4.7,14.1c-.4,1.3.3,2.7,1.5,3.1.1,0,.2,0,.4,0Z"/>
  <path class="st4" d="M132.2,197.6l19.9,3.3c1.3.2,2.6-.7,2.8-2,0,0,0,0,0,0l1.9-14.6c.2-1.3-.7-2.5-2-2.7l-19.4-3.2c-1.3-.2-2.6.6-2.8,2,0,0,0,0,0,0l-2.4,14.6c-.2,1.3.7,2.6,2,2.8h0Z"/>
  <path class="st4" d="M73.6,188l19.9,3.3c1.3.2,2.6-.6,2.8-1.9l2.9-14.5c.2-1.3-.6-2.6-1.9-2.8,0,0,0,0,0,0l-19.4-3.2c-1.3-.2-2.5.6-2.8,1.8l-3.5,14.4c-.3,1.3.5,2.6,1.8,2.9,0,0,.1,0,.2,0Z"/>
  <path class="st4" d="M151.7,205.5l-20.2-3.3c-1.3-.2-2.6.6-2.8,2,0,0,0,0,0,0l-3.2,19.7c-.2,1.3.6,2.6,2,2.8,0,0,0,0,0,0l21,3.4c1.3.2,2.6-.6,2.8-2,0,0,0,0,0-.1l2.5-19.8c.2-1.3-.7-2.5-2-2.7Z"/>
  <path class="st4" d="M62.8,191l-21.4-3.5c-1.2-.2-2.3.5-2.7,1.6l-6.3,19.1c-.4,1.3.3,2.7,1.5,3.1.1,0,.2,0,.4,0l23.1,3.8c1.3.2,2.5-.6,2.8-1.8l4.7-19.4c.3-1.3-.5-2.6-1.8-2.9,0,0-.2,0-.3,0Z"/>
  <path class="st4" d="M193.1,183l18.7,3.1c1.3.2,2.6-.7,2.8-2,0-.1,0-.2,0-.4v-10.3c0-1.2-.9-2.2-2-2.4l-17.8-2.9c-1.3-.2-2.6.7-2.8,2,0,0,0,.1,0,.2l-.9,10.1c-.1,1.3.8,2.5,2.1,2.6Z"/>
  <path class="st4" d="M72.7,160.9l2.4-9.9c.3-1.3-.5-2.6-1.8-2.9,0,0-.1,0-.2,0l-17.8-2.9c-1.2-.2-2.3.5-2.7,1.6l-3.2,9.7c-.4,1.3.3,2.7,1.5,3.1.1,0,.2,0,.4,0l18.7,3.1c1.3.2,2.4-.6,2.7-1.8Z"/>
  <path class="st4" d="M90.5,218.2l3.9-19.5c.3-1.3-.6-2.6-1.9-2.8,0,0,0,0,0,0l-20.2-3.4c-1.3-.2-2.5.6-2.8,1.8l-4.7,19.4c-.3,1.3.5,2.6,1.8,2.9,0,0,.1,0,.2,0l21.1,3.5c1.3.2,2.5-.7,2.7-1.9Z"/>
  <path class="st4" d="M188,214.1l-1.8,19.9c-.1,1.3.8,2.4,2,2.6l23.1,3.8c1.3.2,2.6-.6,2.8-1.9,0-.1,0-.3,0-.4l.2-20.2c0-1.2-.9-2.2-2-2.4l-21.4-3.5c-1.3-.2-2.6.7-2.8,2,0,0,0,.1,0,.2Z"/>
  <path class="st4" d="M122.1,200.6l-20.3-3.3c-1.3-.2-2.6.6-2.8,1.9l-3.9,19.5c-.2,1.3.7,2.6,2,2.8,0,0,0,0,0,0l21,3.4c1.3.2,2.6-.6,2.8-2,0,0,0,0,0,0l3.2-19.7c.2-1.3-.7-2.5-2-2.7Z"/>
  <path class="st4" d="M212.4,190.9l-19.5-3.2c-1.3-.2-2.6.7-2.8,2,0,0,0,.1,0,.2l-1.3,14.7c-.1,1.3.8,2.4,2,2.6l20.7,3.4c1.3.2,2.6-.7,2.8-2,0-.1,0-.3,0-.4v-14.9c.1-1.2-.7-2.2-1.9-2.4Z"/>
  <path class="st4" d="M181.4,210.4l-20.2-3.3c-1.3-.2-2.6.6-2.8,2,0,0,0,0,0,.1l-2.5,19.8c-.2,1.3.7,2.5,2,2.7l21,3.5c1.3.2,2.6-.7,2.8-2,0,0,0-.1,0-.2l1.8-19.8c.2-1.3-.7-2.5-2-2.7Z"/>
  <path class="st3" d="M130,157.1l-1.6,10c-.2,1.3-1.5,2.2-2.8,2,0,0,0,0,0,0l-19-3.1c-1.3-.2-2.2-1.5-2-2.8,0,0,0,0,0,0l2-9.9c.3-1.3,1.5-2.2,2.8-1.9l18.7,3.1c1.3.2,2.2,1.4,2,2.7ZM99.9,149.7l-18.7-3.1c-1.3-.2-2.5.6-2.8,1.9l-2.4,9.9c-.3,1.3.5,2.6,1.8,2.9,0,0,.1,0,.2,0l19,3.1c1.3.2,2.6-.6,2.8-1.9l2-9.9c.3-1.3-.5-2.6-1.8-3,0,0-.2,0-.2,0ZM134.9,170.6l19,3.1c1.3.2,2.6-.6,2.8-2,0,0,0,0,0-.1l1.3-10.1c.2-1.3-.7-2.5-2-2.7l-18.7-3.1c-1.3-.2-2.6.6-2.8,1.9,0,0,0,0,0,0l-1.6,10c-.2,1.3.7,2.6,2,2.8,0,0,0,0,0,0h0ZM101.7,189.8l19.9,3.3c1.3.2,2.6-.6,2.8-2,0,0,0,0,0,0l2.4-14.5c.2-1.3-.7-2.6-2-2.8,0,0,0,0,0,0l-19.4-3.2c-1.3-.2-2.6.6-2.8,1.9l-2.9,14.5c-.3,1.3.6,2.6,1.9,2.9,0,0,0,0,.1,0h0ZM163.4,175.3l19,3.1c1.3.2,2.6-.7,2.8-2,0,0,0-.1,0-.2l.9-10.1c.1-1.3-.8-2.4-2-2.6l-18.7-3.1c-1.3-.2-2.6.7-2.8,2,0,0,0,0,0,.1l-1.3,10c-.2,1.3.7,2.5,2,2.7ZM160.3,199.3l19.9,3.3c1.3.2,2.6-.7,2.8-2,0,0,0-.1,0-.2l1.3-14.7c.1-1.3-.8-2.4-2-2.6l-19.4-3.2c-1.3-.2-2.6.7-2.8,2,0,0,0,0,0,0l-1.9,14.6c-.2,1.3.7,2.6,2,2.8,0,0,0,0,0,0h0ZM42.3,180l20.7,3.4c1.3.2,2.5-.6,2.8-1.8l3.5-14.4c.3-1.3-.5-2.6-1.8-2.9,0,0-.1,0-.2,0l-19.5-3.2c-1.2-.2-2.4.5-2.8,1.6l-4.7,14.1c-.4,1.3.2,2.7,1.5,3.1.1,0,.3,0,.4.1ZM131,194.6l19.9,3.3c1.3.2,2.6-.7,2.8-2,0,0,0,0,0-.1l1.8-14.7c.2-1.3-.7-2.5-2-2.7l-19.4-3.2c-1.3-.2-2.6.7-2.8,2,0,0,0,0,0,0l-2.4,14.5c-.2,1.3.6,2.6,1.9,2.8,0,0,0,0,.1,0ZM72.4,185l19.9,3.3c1.3.2,2.6-.6,2.8-1.9l2.9-14.5c.3-1.3-.6-2.6-1.9-2.8,0,0,0,0,0,0l-19.4-3.2c-1.3-.2-2.5.6-2.8,1.8l-3.5,14.4c-.3,1.3.5,2.6,1.9,2.9,0,0,0,0,.1,0ZM150.5,202.5l-20.3-3.3c-1.3-.2-2.6.6-2.8,2,0,0,0,0,0,0l-3.2,19.7c-.2,1.3.6,2.6,1.9,2.8,0,0,0,0,0,0l21,3.4c1.3.2,2.6-.7,2.8-2,0,0,0,0,0-.1l2.5-19.8c.2-1.3-.7-2.5-2-2.7h0ZM61.5,187.9l-21.4-3.5c-1.2-.2-2.3.5-2.7,1.6l-6.3,19.2c-.4,1.3.3,2.7,1.6,3.1.1,0,.2,0,.4,0l23.1,3.8c1.3.2,2.5-.6,2.8-1.8l4.7-19.4c.3-1.3-.4-2.6-1.7-3-.1,0-.2,0-.3,0ZM191.8,180l18.7,3.1c1.3.2,2.6-.7,2.8-2,0-.1,0-.3,0-.4v-10.2c0-1.2-.8-2.2-2-2.4l-17.8-2.9c-1.3-.2-2.6.6-2.8,2,0,0,0,.1,0,.2l-.9,10.1c-.1,1.3.8,2.4,2,2.6ZM71.4,157.9l2.4-9.9c.3-1.3-.5-2.6-1.8-2.9,0,0,0,0-.1,0l-17.9-2.9c-1.2-.2-2.3.5-2.7,1.6l-3.2,9.7c-.4,1.3.3,2.6,1.5,3.1.1,0,.3,0,.4,0l18.7,3.1c1.3.2,2.5-.6,2.8-1.9ZM89.2,215.2l3.9-19.5c.2-1.3-.6-2.6-1.9-2.8,0,0,0,0,0,0l-20.2-3.4c-1.3-.2-2.5.6-2.8,1.8l-4.7,19.5c-.3,1.3.5,2.6,1.8,2.9,0,0,.1,0,.2,0l21,3.4c1.3.2,2.5-.7,2.7-2ZM186.8,211.1l-1.8,19.9c-.1,1.3.8,2.4,2,2.6l23.1,3.8c1.3.2,2.6-.7,2.8-2,0-.1,0-.3,0-.4l.2-20.1c0-1.2-.9-2.2-2-2.4l-21.4-3.5c-1.3-.2-2.6.7-2.8,2,0,0,0,.1,0,.2ZM120.9,197.6l-20.3-3.3c-1.3-.2-2.6.6-2.8,1.9l-3.9,19.5c-.2,1.3.7,2.6,2,2.8,0,0,0,0,0,0l21,3.5c1.3.2,2.6-.6,2.8-1.9,0,0,0,0,0,0l3.2-19.7c.2-1.3-.7-2.6-2-2.8,0,0,0,0,0,0h0ZM211.2,187.9l-19.5-3.2c-1.3-.2-2.6.7-2.8,2,0,0,0,.1,0,.2l-1.3,14.7c-.1,1.3.8,2.4,2,2.6l20.7,3.4c1.3.2,2.6-.7,2.8-2,0-.1,0-.3,0-.4v-14.9c.1-1.2-.8-2.2-2-2.4h0ZM180.2,207.4l-20.2-3.3c-1.3-.2-2.6.7-2.8,2,0,0,0,0,0,.1l-2.5,19.8c-.2,1.3.7,2.5,2,2.7l21,3.4c1.3.2,2.6-.7,2.8-2,0,0,0-.1,0-.2l1.8-19.9c.1-1.3-.8-2.4-2-2.6Z"/>
  <path class="st1" d="M214.3,52.9c-20.7,44.6-85.8,70.5-158.3,60.6l15.1-78.4c.6-3.1,3.6-5.2,6.7-4.7l136.6,22.4Z"/>
  <path class="st0" d="M275.2,64.4c-14.8-35.2-66.6-42.8-124.3-21.9l1.2.2c52.4-15.3,97.7-6.1,111.5,26.7,13.8,32.8-8.2,80.5-51.3,118.9-7.1,6.3-14.6,12.3-22.4,17.8-2.2,1.6-4.5,3.2-6.9,4.7-5.2,3.4-10.5,6.7-16,9.8-3.1,1.7-6.1,3.4-9.1,4.9,6.7-3.1,13.5-6.5,20.3-10.3,1.7-1,3.5-2,5.2-3,1.2-.7,2.5-1.4,3.7-2.2h0l1.8-1.1c1.1-.7,2.3-1.4,3.4-2.2,7.5-4.8,14.7-10.1,21.6-15.6,49.5-39.8,76.1-91.5,61.3-126.7ZM154.7,227.1c-1.5.7-3,1.3-4.5,1.9h0l-.9.4h0c-61.2,25.1-117.6,18.6-133.2-18.5-12.7-30.4,5.3-73.1,42.3-109.8l1.4-7.6C14.3,132.5-9.4,181.7,4.9,215.6c17.1,40.7,82.6,45,149.9,11.6l3.2-1.6c-1.1.5-2.1,1-3.2,1.4Z"/>
</svg>